<svg xmlns="http://www.w3.org/2000/svg" width="1779" height="991"><path fill="#150F1E" d="M0 0h1779v991H0z"/><path fill="#06E29B" d="M1017 303h1c5.544 27.227 3.527 63.062-10 88l-.89 1.704C990.808 423.816 965.134 446.258 932 458l-1.897.675c-16.33 5.7-33.723 9.396-51.044 9.563l-2.536.03c-17.857.166-35.105.158-52.523-4.268l-2.778-.682c-6.46-1.604-12.849-3.4-19.222-5.318l-2.289-.678c-12.163-3.655-23.742-8.597-35.387-13.638-5.363-2.307-10.779-4.436-16.237-6.507a528 528 0 0 1-8.353-3.275c-19.24-7.641-42.345-15.656-62.777-7.355C666.043 431.91 656.762 437.427 648 446a441 441 0 0 1-4.062 3.438c-4.746 4.115-8.824 8.829-12.938 13.562-1-3-1-3 .336-6.152q.998-1.904 2.039-3.786l1.108-2.026c9.083-16.21 21.111-29.282 37.517-38.036l2.703-1.457c31.026-15.374 68.036-6.55 99.86 1.823 51.068 13.281 107.873 13.943 157.079-6.4a235 235 0 0 1 4.88-1.933c5.586-2.15 10.724-4.64 15.853-7.72l2.211-1.319C964.95 389.718 974.184 382.307 983 374l1.86-1.7c19.591-18.558 28.804-43.119 32.14-69.3"/><path fill="#D7D6D9" d="M1035 373c1.527 2.876 2.625 5.695 3.563 8.813l.753 2.457c6.35 25.36 2.056 55.2-8.316 78.73-.987 2.469-1.93 4.952-2.875 7.438l-1.242 3.246L1026 476h-2l-.316 1.691c-6.315 21.327-32.01 43.264-50.73 53.625-3.915 2.057-7.906 3.909-11.954 5.684l-1.918.85c-9.12 3.992-18.376 6.971-28.082 9.15l-2.395.54c-32.928 6.764-63.942-1.652-92.605-17.54l-2.016-1.106c-7.394-4.075-7.394-4.075-9.984-5.894v-2l-1.672-.75c-2.78-1.492-5.11-3.287-7.578-5.25l-2.703-2.125L810 511v-2l-1.734-.719c-2.754-1.557-4.434-3.406-6.516-5.781l-2.14-2.406C798 498 798 498 798 496h-2c-1.508-1.969-1.508-1.969-3.125-4.5l-1.633-2.531L790 487l1-2 2.922 2.117 3.828 2.758 1.922 1.395c3.015 2.167 5.911 4.229 9.328 5.73v2l2.375.188c3.204.718 4.905 1.44 7.688 3 14.777 7.61 31.513 10.17 47.937 10.812l3.394.133c23.923.778 44.964-2.68 67.606-10.133l1.983-.628c34.983-11.095 64.86-37.034 82.01-69.243 4.214-8.356 7.335-17.413 9.257-26.567C1032 403 1032 403 1034 401c.121-2.864.136-5.64.063-8.5-.095-6.591.092-12.95.937-19.5"/><path fill="#E42967" d="m900.125 274.813 3.477-.038c9.71-.016 19.359.432 28.398 4.225 2.22.518 4.45.994 6.688 1.438 12.718 2.65 12.718 2.65 17.312 4.562l1 2-2.835-.095c-24.25-1.04-24.25-1.04-47.367 5.313-2.836 1.233-5.79 2.095-8.736 3.032-12.55 4.535-25.016 10.918-35.062 19.75a942 942 0 0 1-3.324 2.71C852.188 323.86 845.84 330.218 840 338l-1.598 1.973C820.246 362.777 814.292 391.596 813 420c-9.753.444-18.511-.81-28-3l-3.629-.797c-5.238-1.168-10.286-2.483-15.371-4.203 2.581-32.913 2.581-32.913 8-46l.912-2.215c2.22-5.332 4.598-10.575 7.088-15.785l1.46-3.09c4.111-8.09 9.729-14.993 15.54-21.91l1.349-1.615C807.36 313.087 815.215 306.364 824 300l1.68-1.221c5.533-3.976 10.544-7.547 17.32-8.779v-2c9.26-3.839 18.477-7.344 28.188-9.875l2.352-.614c8.908-2.237 17.423-2.693 26.585-2.699"/><path fill="#FAFAFB" d="m1177 635 24.75-.187 7.737-.083q3.092-.014 6.185-.023l3.15-.046c14.578-.006 26.225 3.882 36.846 13.85 8.378 8.94 11.922 19.484 11.55 31.61-.984 12.958-6.688 23.092-16.218 31.879-10.102 7.64-20.356 9.464-32.79 9.293l-3.185-.01c-3.884-.015-7.767-.057-11.65-.096L1177 721z"/><path fill="#FCFBFC" d="m542 635 25.188-.25 7.867-.11c18.127-.15 30.778 1.434 44.758 13.86 7.99 9.132 12.046 19.122 11.574 31.457-1.467 11.545-6.382 24.501-15.762 31.922L613 713.562l-2.562 1.692c-9.305 4.726-17.834 6.333-28.204 6.137l-3.12-.013c-3.788-.02-7.576-.076-11.364-.128L542 721z"/><path fill="#FAF9FA" d="m935.438 633.75 2.261.02c5.32.1 10.23.527 15.301 2.23l2.441.777c10.185 3.623 19.91 10.97 24.844 20.778 4.447 10.742 6.326 24.96 2.028 36.07A77 77 0 0 1 980 698l-1.203 2.2c-5.924 10.142-15.739 17.037-26.797 20.8-15.244 3.348-30.485 1.646-43.875-6.312-8.916-6.064-14.833-14.491-17.77-24.993-1.9-14.405-.727-27.367 7.77-39.57 4.139-4.927 9.306-8.019 14.875-11.125l3.188-1.812c6.384-2.696 12.397-3.528 19.25-3.438M749 635h21l6.664 19.993 1.325 3.971q1.71 5.114 3.388 10.239l.677 2.056q.924 2.814 1.844 5.63c.888 2.506 1.837 4.78 3.102 7.111 3.801-8.018 7.03-16.164 10.063-24.5l1.275-3.473c2.57-7.003 5.113-14.016 7.662-21.027h27c3 8 3 8 4.336 11.586 1.418 3.785 2.873 7.556 4.328 11.328l2.207 5.75q.756 1.968 1.519 3.933 1.112 2.875 2.212 5.755l1.322 3.432c1.031 3.083 1.64 6 2.076 9.216h2l.32-2.967c.633-4.399 2.038-8.4 3.551-12.564l.856-2.409a2078 2078 0 0 1 2.71-7.56q1.354-3.78 2.7-7.56.836-2.345 1.68-4.685l.778-2.175.678-1.88c1.004-3.037 1.848-6.125 2.727-9.2h21l-2 9-.77 3.485c-3.043 12.94-7.454 25.4-11.793 37.952l-2.326 6.78q-2.13 6.215-4.273 12.425a807 807 0 0 0-4.22 12.59C864 719 864 719 863 721h-20c-3.61-8.586-7.11-17.115-9.94-25.989-3.715-11.598-8.332-22.795-13.06-34.011-2.045 2.045-2.61 3.199-3.616 5.844l-.922 2.401-.982 2.61-1.031 2.709q-1.084 2.852-2.161 5.707-1.622 4.292-3.259 8.579c-3.59 9.45-7.046 18.909-10.125 28.538C797 720 797 720 796 721a76 76 0 0 1-4.691.098l-2.862-.01-3.01-.025-3.021-.014q-3.708-.018-7.416-.049-1.199-3.183-2.375-6.375l-1.336-3.586c-.962-2.795-1.588-5.507-2.09-8.418-1.5-7.955-4.393-15.543-7.011-23.183-3.12-9.136-6.209-18.27-8.95-27.528l-.6-2.012c-1.44-4.947-2.514-9.84-3.638-14.898"/><path fill="#FCFBFC" d="m994 635 29.313-.25 9.188-.11q3.65-.018 7.3-.03l3.755-.063c10.139-.004 19.317 1.609 26.944 8.765l2.406 2.176c4.937 5.923 5.574 11.626 5.469 19.012l.035 2.473c-.036 7.441-1.801 12.766-6.973 18.34l-1.816 1.988A220 220 0 0 1 1066 691l.962 1.725q2.18 3.916 4.35 7.837l1.514 2.713c3.197 5.78 6.08 11.444 8.174 17.725h-23l-12-25-32-1v26h-20zM640 635l27.375-.187 8.583-.083q3.408-.014 6.815-.023l3.51-.046c12.398-.004 20.66 2.741 29.697 11.19 6.354 6.577 7.048 12.634 7.395 21.524-.183 9.247-2.814 17.126-9.242 23.902-7.61 6.147-16.124 7.883-25.617 7.82l-2.472-.004a2833 2833 0 0 1-7.794-.03q-2.646-.008-5.293-.014c-4.319-.01-8.638-.03-12.957-.049v22h-20z"/><path fill="#FBFBFB" d="M1091 635h20v66h58v20h-78z"/><path fill="#191321" d="m562 654 13.375-.25 4.154-.11c9.005-.081 16.477 1.191 23.846 6.61 6.38 6.684 7.062 12.318 6.96 21.48-.322 3.141-.998 5.43-2.335 8.27h-2l-.562 2.188C602.737 697.472 597.5 700.16 592 702c-3.322.227-3.322.227-7.05.195l-3.654-.015-4.609-.055L562 702z"/><path fill="#171120" d="m1198 654 13.875-.312 4.312-.138c8.908-.097 15.978 1.015 22.712 7.192 4.57 4.85 7.183 10.26 7.664 16.946-.24 7.092-3.393 13.975-8.274 19.113-8.005 6.14-17.093 5.45-26.726 5.324L1198 702zM955.766 660.168c3.703 2.778 5.491 5.607 7.234 9.832.956 7.152 1.414 14.853-2.5 21.188-4.828 5.953-10.99 9.388-18.5 10.812-9.423.88-17.497-1.067-25-7-5.831-6.155-6.462-12.622-6.312-20.805.598-6.122 2.822-9.671 7.062-14.008 11.563-7.782 26.434-7.68 38.016-.019"/><path fill="#181321" d="M660 654c4.59-.07 9.179-.129 13.77-.165q2.34-.022 4.678-.061c2.25-.037 4.498-.054 6.747-.067.691-.015 1.382-.03 2.094-.047 4.65-.001 7.767.89 11.711 3.34 2.802 3.244 3.904 5.235 4.438 9.5-.654 5.225-1.952 8.278-6.054 11.651-3.95 2.159-7.03 2.366-11.407 2.24l-2.262-.018a582 582 0 0 1-7.09-.123q-2.415-.03-4.832-.055c-3.932-.04-7.86-.118-11.793-.195z"/><path fill="#1A1523" d="M1014 654c5.143-.138 10.28-.258 15.424-.33q2.62-.044 5.24-.123c2.52-.073 5.038-.107 7.559-.133.773-.03 1.546-.062 2.343-.094 5.352-.003 8.157 1.41 12.144 4.949 2.034 2.73 2.061 5.235 1.782 8.547-.775 3.44-2.145 5.583-4.492 8.184-4.275 2.298-8.408 2.261-13.145 2.195l-2.332-.008c-2.445-.011-4.89-.037-7.335-.062q-2.496-.016-4.99-.027c-4.067-.02-8.132-.06-12.198-.098z"/><path fill="#1D9C73" d="M757 409v1c-7.985.187-15.264.229-23-2-16.486-2.424-34.244-2.771-50 3l-2.738.91c-11.19 4.02-19.928 11.111-28.137 19.527l-2.469 2.448c-4.676 4.725-8.375 9.33-11.656 15.115l2.875-2.5c2.875-2.5 2.875-2.5 5.125-2.5l1-3c1.559-1.605 1.559-1.605 3.438-3.187l1.87-1.606C655 435 655 435 657 435v-2q2.335-1.359 4.688-2.687l2.636-1.512A174 174 0 0 1 668 427l2.72-1.303c8.245-3.581 15.691-4.452 24.536-4.294 2.111.034 4.218.02 6.33.001 13.363.015 25.14 3.324 37.414 8.596q2.748 1.1 5.5 2.188c2.214.879 4.37 1.747 6.5 2.812v2l5 1c-1.562.688-1.562.688-4 1-1.647-.67-3.292-1.35-4.915-2.075-20.54-9.108-44.758-18.163-67.398-11.488C667.653 430.328 657.28 436.923 648 446a441 441 0 0 1-4.062 3.438c-4.746 4.115-8.824 8.829-12.938 13.562-1-3-1-3 .336-6.152q.998-1.904 2.039-3.786l1.108-2.026c9.083-16.21 21.111-29.282 37.517-38.036l2.703-1.457c25.95-12.858 55.038-7.96 82.297-2.543"/><path fill="#268A71" d="M1017 303h1c5.599 27.493 3.31 62.747-10 88l-1.75 3.563L1005 397l-1-3 1.332-2.633c2.011-4.06 2.667-7.8 3.356-12.242l.392-2.375c.315-1.915.619-3.832.92-5.75h2l.402-3.14.535-4.11.264-2.066c.692-5.28.692-5.28 1.31-7.618.948-4.006.918-8.153 1.114-12.253l.156-2.811.133-2.67.124-2.446c.18-1.9.18-1.9-1.038-2.886l-1.242 2.738-1.633 3.575-1.617 3.55C1009 344 1009 344 1007 347h-2c1.156-3.887 2.672-7.426 4.438-11.062 4.782-10.408 6.126-21.666 7.562-32.938"/><path fill="#BA3062" d="M914.563 287.938 918 288c-3.443 2.295-6.813 3.133-10.75 4.188-8.57 2.42-16.36 5.714-24.25 9.812l-1.8.917c-9.518 4.906-17.245 10.995-25.2 18.083a936 936 0 0 1-3.75 3c-4.728 4.059-8.425 9.114-12.25 14l-1.625 1.996c-4.175 5.275-7.377 11.068-10.64 16.93C826 360 826 360 824 363c-.35-4.198.399-5.775 3-9 .705-2.147.705-2.147 1-4h2v-3h2l1-6h2v-2h2l.719-1.64c1.624-2.993 3.631-5.472 5.781-8.11l2.406-2.984L848 324h2l1-4h3v-3c6.625-3.875 6.625-3.875 10-5l1-3h2v-2h4v-2h4v-2h2v-2a836 836 0 0 1 9.063-4.5c.847-.43 1.695-.859 2.568-1.3 5.081-2.473 8.71-3.753 14.369-3.2v-2l3.438-.437c3.987-.63 4.092-1.555 8.125-1.625"/><path fill="#26CA9A" d="M1003 392h2c-.434 5.847-2.042 9.415-5.375 14.188l-1.341 1.963c-4.545 6.491-9.76 12.19-15.284 17.849l-1.98 2.168C972.796 436.952 961.7 444.561 951 450h-2v-3l1.934-.805 2.504-1.07 2.496-1.055c2.223-.894 2.223-.894 3.066-3.07h4l1-4h3v-2h4v-3l4-1 1-4 5-1 1-4h2v-3h2l.875-1.812C988 415 988 415 990 412h2v-3h2l.813-2.187c1.186-2.81 2.462-5.297 4.187-7.813h2v-4h2z"/><path fill="#831F48" d="M927 277v1l-1.757-.108c-2.643-.158-5.287-.306-7.93-.454l-2.764-.17-2.686-.147-2.46-.143c-2.59.024-4.872.49-7.403 1.022a97 97 0 0 1-4.512.21c-11.966.273-11.966.273-23.527 3.103C872 282 872 282 868.312 282.5c-3.403.36-3.403.36-6.625 2-4.57 1.859-8.8 2.215-13.687 2.5 22.09-14.727 54.053-14.44 79-10"/><path fill="#1CB783" d="M694.879 421.554c2.155.008 4.308-.02 6.463-.052 13.507-.068 25.242 3.165 37.658 8.498q2.748 1.1 5.5 2.187c2.214.88 4.37 1.748 6.5 2.813v2l5 1c-1.563.687-1.563.687-4 1-1.647-.67-3.292-1.35-4.915-2.075-16.49-7.312-32.862-13.183-51.023-13.363l-2.582-.03c-5.464.076-10.122 1.039-15.292 2.809-2.78.837-5.307.886-8.188.659 7.982-5.321 15.542-5.502 24.879-5.446"/><path fill="#BC3966" d="M822 363h2l-.48 1.59q-.769 2.551-1.528 5.105a739 739 0 0 1-2.234 7.297c-4.402 14.289-6.08 28.114-6.758 43.008q-3.062.04-6.125.063l-3.445.035c-3.243-.093-6.25-.484-9.43-1.098v-1h15l.332-4.355c2.051-25.412 2.051-25.412 5.668-32.645h2l.25-3.375c.63-5.24 2.636-9.827 4.75-14.625"/><path fill="#430725" d="m832 292 4 1-2.273 1.469C826.842 298.978 820.303 303.69 814 309l-2.457 2.012C800.219 320.659 789.095 334.376 783 348c-1.255-3.766-.37-5.372 1-9h2v-4c2.375-2.625 2.375-2.625 5-5 2.139-2.139 2.427-3.133 3-6h2v-2h2v-2h3l.313-1.937L802 316l3-1v-3l4-1v-2h2v-2h2v-2h2v-2l5-1v-3c5.75-3 5.75-3 8-3v-2h4z"/><path fill="#002D24" d="M998 353h2c-1.454 4.453-3.906 7.64-6.937 11.125l-1.492 1.725A525 525 0 0 1 987 371l-2.54 2.836c-8.936 9.435-20 17.983-31.46 24.164h-2v-3h3v-2l5.176-2.93c1.644-.964 3.238-2.013 4.824-3.07h3l1-3h3v-2h2v-2h2l.813-1.937C977 376 977 376 980 375v-2c4.47-4 4.47-4 7-4l1-4h2l1-3h2l.438-1.875C994 358 994 358 995 356h2z"/><path fill="#B54B6C" d="M775 363c.977 3.093.988 5.164.25 8.313l-.484 2.175C774 376 774 376 772.496 378.922c-2.486 5.649-2.336 11.942-2.683 18.015l-.249 3.807q-.298 4.627-.564 9.256l1.806.385c4.01.87 7.946 1.74 11.819 3.115 3.763 1.303 7.538 2.439 11.375 3.5-3.381 1.123-5.683.859-9.133.074l-2.941-.666-3.051-.72-3.074-.686C768.26 413.26 768.26 413.26 766 411c-.054-4.558.574-9.096 1.063-13.625l.206-1.99c1.094-10.341 2.94-19.705 6.731-29.385z"/><path fill="#D22C65" d="m825 299 2 1c-2.606 3.338-5.202 6.265-8.437 9-4.13 3.522-7.974 7.293-11.813 11.125l-1.826 1.813c-3.198 3.207-6.172 6.452-8.924 10.062l-3-1c9.13-12.243 18.873-21.858 31-31z"/><path fill="#25CE9C" d="M940 454c-2.838 2.838-6.266 3.648-10 4.875l-2.42.798c-12.26 3.933-24.676 6.821-37.58 7.327v-2c5.879-2.613 11.707-2.183 18-2v-2l2.08-.535q4.648-1.198 9.295-2.402l3.273-.842 3.125-.81 2.889-.747c4.11-1.167 6.91-1.746 11.338-1.664"/><path fill="#14C591" d="m1004 347 3 1c-2.625 4.875-2.625 4.875-6 6l-.305 2.23c-.774 3.083-1.823 4.634-3.82 7.082l-1.914 2.356L993 368l-1.773 2.113C979.747 383.49 979.747 383.49 973 386l-2-1 2.457-2.203C985.485 371.92 995.647 360.943 1004 347"/><path fill="#219C7B" d="M1016 340h1c.79 18.004-.454 34.784-9 51l-1.75 3.563L1005 397l-1-3 1.332-2.633c2.011-4.06 2.667-7.8 3.356-12.242l.392-2.375c.315-1.915.619-3.832.92-5.75h2l.402-3.14.535-4.11.264-2.066c.688-5.245.688-5.245 1.33-7.778.664-2.7.82-5.386 1.032-8.156l.253-3.266z"/><path fill="#06352C" d="M813 420c4.042-.03 8.083-.047 12.125-.062l3.46-.026 3.36-.01 3.079-.016c3.07.118 5.952.59 8.976 1.114q2.225.126 4.453.133l2.375.004 2.422-.012 2.469.012c4.275.112 4.275.112 8.281-1.137 1.813-.085 3.63-.107 5.445-.098l3.262.01 3.418.026 3.441.013q4.218.018 8.434.049v1c-13.246 1.76-26.406 2.22-39.75 2.25l-2.349.015c-11.11.059-21.898-.732-32.901-2.265z"/><path fill="#061E23" d="m1019 308 2 1q.074 9.207.11 18.414.016 3.13.04 6.26c.025 3.005.037 6.011.045 9.017l.032 2.807c0 5.267-.566 9.507-2.227 14.502a88 88 0 0 0-.746 4.078c-.115.686-.23 1.372-.35 2.078q-.345 2.115-.672 4.235c-1.085 6.33-1.085 6.33-4.232 8.609.74-6.738 2.06-13.237 3.54-19.846 2.492-11.431 2.585-22.56 2.523-34.216q-.008-2.468-.014-4.936-.017-6-.049-12.002"/><path fill="#7E7985" d="M1035 373c1.527 2.876 2.625 5.695 3.563 8.813l.753 2.457c1.965 7.846 1.87 15.725 1.87 23.753.001 2.207.02 4.414.039 6.622.03 7.965-.378 15.565-2.225 23.355h-1l.219-2.945c1.159-16.707 1.94-33.528-1.219-50.055h-1l-1 11h-1c-.11-7.741.028-15.314 1-23"/><path fill="#A32856" d="M914.563 287.938 918 288c-3.443 2.295-6.813 3.133-10.75 4.188-8.576 2.405-16.312 5.816-24.25 9.812l-3.156 1.559A649 649 0 0 0 873 307v-2h2v-2h2v-2a836 836 0 0 1 9.063-4.5l2.568-1.3c5.081-2.473 8.71-3.753 14.369-3.2v-2l3.438-.437c3.987-.63 4.092-1.555 8.125-1.625"/><path fill="#1AC08A" d="M769 445c6.109.35 10.559 1.053 16 4 2.478.815 4.976 1.529 7.484 2.246 2.92.875 5.724 1.956 8.559 3.07 2.112.738 4.209 1.214 6.394 1.684l3.563 1 1 3c-5.696-.73-10.99-2.438-16.437-4.187-.968-.31-1.936-.618-2.933-.936-8.035-2.604-15.857-5.572-23.63-8.877z"/><path fill="#26B686" d="M701 405c19.109-.438 37.29-.526 56 4v1c-7.985.187-15.264.229-23-2-7.325-1.045-14.74-1.276-22.125-1.562l-3.187-.131q-3.844-.157-7.688-.307z"/><path fill="#012420" d="M654 422c2.063.438 2.063.438 4 1l-2.273 2.098c-6.999 6.63-12.528 13.502-17.668 21.652-1.597 2.52-3.223 4.904-5.059 7.25.591-4.847 1.98-8.607 4-13h2v-2h2l1-3h2l1-5h2v-2h2v-2h2l.938-1.937C653 423 653 423 654 422"/><path fill="#23876A" d="m644 437 1 3c-1.215 2.262-1.215 2.262-2.937 4.688-.85 1.212-.85 1.212-1.715 2.449L639 449l5-1a1462 1462 0 0 1-13 15c-1-3-1-3 .441-6.293a242 242 0 0 1 2.121-3.894l1.106-2.032A92 92 0 0 1 644 437"/><path fill="#24A77E" d="M695.428 421.609c2.265.016 4.528 0 6.793-.02q2.176.004 4.353.013l3.956.01c3.63.406 5.542 1.266 8.47 3.388-2.615 1.308-3.654.757-6.469.082-5.395-1.15-10.527-1.415-16.031-1.395l-2.645-.048c-5.633-.005-10.356.857-15.683 2.697-2.772.847-5.295.891-8.172.664 8.159-5.44 15.96-5.472 25.428-5.391"/><path fill="#023E31" d="M924 410c-2.189 2.189-3.34 2.574-6.254 3.438l-2.592.773-2.716.789c-.87.26-1.74.52-2.635.79C894.19 420.4 894.19 420.4 888 420v-2h7v-2c5.76-1.298 11.087-2.257 17-2v-2c4.177-1.591 7.532-2.213 12-2"/><path fill="#450826" d="M768 387c.951 3.107 1.011 5.545.66 8.766l-.283 2.695-.314 2.789-.303 2.836q-.37 3.458-.76 6.914l-3-2c-.363-2.828-.363-2.828-.312-6.25l.011-3.39c.305-3.405 1.09-6.176 2.301-9.36h2z"/><path fill="#012922" d="m689 407-2.457.883c-7.579 2.805-14.558 6.064-21.543 10.117l-4.187 2.375L658 422c.246-1.844.246-1.844 1-4 1.785-1.344 1.785-1.344 4.063-2.5l2.472-1.273L668 413l2.059-1.102c13.014-6.86 13.014-6.86 18.941-4.898"/><path fill="#4ABE96" d="M778 415c4.66.622 9.218 1.442 13.813 2.438 8.672 1.772 17.384 2.705 26.187 3.562v1c-12.627-.313-24.706-.955-37-4v-2z"/><path fill="#4A0425" d="m781 348 1 2c-.82 2.145-.82 2.145-2.125 4.813-4.138 8.782-7.823 17.675-9.875 27.187h-1v-11l3-1 .344-2.613c.673-3.474 1.744-6.336 3.156-9.574 1.268-2.93 2.49-5.784 3.5-8.813z"/><path fill="#27625A" d="M1017 303h1c2.695 13.237 2.197 26.56 2 40h-1l-1-24-2-1c-.103-5.126-.036-9.95 1-15"/><path fill="#41112A" d="M822 367h1c.568 6.103-1.095 11.046-3.027 16.816-.936 3.061-1.52 6.02-1.973 9.184l-3 1c.661-5.615 1.95-10.88 3.5-16.312l.684-2.456c1.673-5.946 1.673-5.946 2.816-8.232"/><path fill="#13A37C" d="m1004 347 3 1c-2.625 4.875-2.625 4.875-6 6l-.246 2.2c-.923 3.429-2.397 5.04-4.817 7.613l-2.222 2.394L992 368l-2-1 1.793-2.344c4.351-5.735 8.516-11.465 12.207-17.656"/><path fill="#B42356" d="M775 363c1.806 5.713-.118 11.094-2.562 16.375-1.671 4.213-1.927 7.872-2.13 12.367L770 394l-2 1c.196-10.412 2.627-19.27 6-29z"/><path fill="#23BE91" d="M1003 392h2c-.448 5.554-1.818 8.886-5 13.438l-2.187 3.183L996 411h-1c.463-4.725 1.099-8.17 4-12h2v-4h2z"/><path fill="#37132B" d="M914 275c8.142-.39 15.13-.635 22.637 2.91 3.965 1.829 8.167 2.912 12.363 4.09-3.979 1.326-6.898.234-10.812-.812l-2.12-.542c-3.132-.811-6.183-1.686-9.244-2.744-2.794-.893-5.282-1.29-8.199-1.527l-2.648-.227L914 276z"/><path fill="#2B2533" d="m1034 371 2 2c-.21 2.197-.432 4.393-.707 6.582-.638 7.443-.362 14.953-.293 22.418l-3 1v5h-1l.201-1.75c.863-7.972 1.145-15.933 1.404-23.943l.114-3.116.092-2.806C1033 374 1033 374 1034 371"/><path fill="#012723" d="m1009 331 2 1c-2.115 7.167-4.955 13.69-9 20l-2 1 1-7h2l1-5h2v-3h2z"/><path fill="#B8285D" d="M874 280c-2 2-2 2-5.187 2.438-3.827.386-3.827.386-7.125 2.062-4.57 1.859-8.8 2.215-13.688 2.5 7.977-5.318 16.479-7.298 26-7"/><path fill="#149473" d="m1013 328 3 1a3507 3507 0 0 1-3.375 7.313l-.96 2.091c-1.403 3.024-2.813 5.818-4.665 8.596h-2c1.399-4.468 3.136-8.638 5.125-12.875l1.633-3.492z"/><path fill="#84214A" d="M914.563 287.938 918 288c-2.545 1.697-4.039 2.44-6.871 3.254l-2.24.65-2.327.659-2.314.67c-3.404.98-6.808 1.922-10.248 2.767v-3c2.957-1.478 5.742-1.06 9-1v-2l3.438-.437c3.987-.63 4.092-1.555 8.125-1.625"/><path fill="#3F0F2A" d="m839 338 1 4-1.812 1c-2.68 2.45-3.262 4.553-4.403 7.926-1.175 3.104-2.753 5.452-4.785 8.074h-2c2.058-7.821 6.74-14.93 12-21"/><path fill="#3D0825" d="M875 277c-3.077 2.051-5.535 2.89-9.062 3.938l-3.485 1.042L859 283l-5.812 1.75L849 286v-2c3.371-1.498 5.204-2 9-2v-2c11.522-3.444 11.522-3.444 17-3"/><path fill="#042925" d="M912 465c-5.544 2.805-9.773 3.394-15.937 3.188l-2.362-.042A477 477 0 0 1 888 468v-1c3.248-.534 6.499-1.05 9.75-1.562l2.79-.46 2.694-.42 2.476-.396c2.351-.166 4.054.135 6.29.838"/><path fill="#022A24" d="m780 450 3.688 1.25c6.07 2.027 12.19 3.886 18.312 5.75l-4 2v-2l-3.125.125c-3.743-.12-6.412-.774-9.875-2.125v-2l-5-1z"/><path fill="#B7275B" d="m846 287 2 1-3 1v2c-6.625 3-6.625 3-10 3l-1 3c-3 2-3 2-5.187 1.625L827 298c5.204-3.752 9.687-6.657 16-8v-2z"/><path fill="#268F6F" d="M656 437c-1.242 3.726-2.84 4.804-5.875 7.25l-2.68 2.203L645 448l-3-1c1.375-1.5 1.375-1.5 3-3h2l1-3c4.343-4 4.343-4 8-4"/><path fill="#103735" d="M1017 356h1c.34 7.45.333 14.18-3 21l-2 2c.793-7.768 2.419-15.363 4-23"/><path fill="#40102B" d="M903 294c-3.373 2.833-6.931 4.358-11 6l-2.687 1.25c-2.633.854-3.722.514-6.313-.25 16.692-8.654 16.692-8.654 20-7"/><path fill="#2D977D" d="M1012 375c1.08 2.753 1.02 3.935.11 6.805-.45 1.013-.898 2.026-1.36 3.07l-1.402 3.195c-1.388 3.016-2.799 5.995-4.348 8.93-1-3-1-3 .25-5.625L1007 388c.808-2.269 1.54-4.552 2.254-6.852.75-2.162 1.68-4.125 2.746-6.148"/><path fill="#012A21" d="M760 442c4.41.666 8.266 2.266 12.313 4.063l1.955.853q2.368 1.037 4.732 2.084c-3.948 1.316-6.353.044-10.062-1.375-.638-.235-1.275-.47-1.932-.71-2.386-.886-4.728-1.776-7.006-2.915z"/><path fill="#092425" d="M670 430c-1.49 4.07-3.748 5.323-7.5 7.313l-2.969 1.613L657 440l-2-1c11.738-9 11.738-9 15-9"/><path fill="#1AD89D" d="M906 417v2c-5.879 2.613-11.707 2.183-18 2v-1q3.374-.757 6.75-1.5l3.797-.844C902 417 902 417 906 417"/><path fill="#1CDFA4" d="M940 454c-2.23 2.23-3.13 2.436-6.133 3.07l-2.441.528-2.551.527-2.574.55c-2.1.449-4.2.888-6.301 1.325 1.49-2.978 3.521-3.085 6.625-4.125 4.702-1.515 8.47-2.32 13.375-1.875"/><path fill="#188364" d="M644 437c1 3 1 3-.074 5.156l-1.614 2.344-1.574 2.344c-1.735 2.153-3.46 3.607-5.738 5.156 1.388-3.89 3.215-6.966 5.625-10.312l1.914-2.676z"/><path fill="#09332A" d="M747 407c6.37-.235 11.913.008 18 2l1 2c-6.44-.623-12.676-1.64-19-3z"/><path fill="#0B3B33" d="m988 420 1 4-2.625 1.625c-3.596 2.38-6.403 5.261-9.375 8.375l-2-1z"/><path fill="#21BE89" d="M718 424c1.773.256 3.543.53 5.313.813l2.988.457c2.826.764 3.895 1.483 5.699 3.73-2.77 1.385-4.07.619-7-.25l-2.687-.766C720 427 720 427 718 424"/><path fill="#42112C" d="m857 319 1 2c-1.375 2-1.375 2-3 4h-2l-2 4h-3c1.382-3.21 2.924-5.05 5.625-7.25l1.914-1.578z"/><path fill="#117F63" d="m1015 317 .438 1.938c.372 2.037.372 2.037 1.562 3.062.072 1.686.084 3.375.063 5.063l-.028 2.785L1017 332c-2.062-1.5-2.062-1.5-4-4-.156-3.865.786-7.358 2-11"/><path fill="#082F2B" d="m968 438 2 1c-2.578 2.648-4.916 4.944-8 7l-4-1z"/><path fill="#013026" d="M924 410c-2.176 2.176-3.56 2.719-6.437 3.688l-2.372.824C913 415 913 415 910 414h2v-2c4.177-1.591 7.532-2.213 12-2"/><path fill="#15AE83" d="M999 357c0 3.78-.997 4.461-3.5 7.188l-1.969 2.167L992 368l-2-1a991 991 0 0 1 3.375-4.437l1.898-2.497C997 358 997 358 999 357"/><path fill="#24BC8B" d="M812 460c5.178-.179 9.15-.078 14 2l2 2c-5.508-.59-10.649-1.567-16-3z"/><path fill="#1DC48D" d="M799 456c1.603-.081 3.208-.14 4.813-.187l2.707-.106c2.896.342 3.706 1.047 5.48 3.293-3.43 1.188-5.378.802-8.75-.437l-2.422-.872L799 457z"/><path fill="#1FB080" d="M769 445c9.858.21 9.858.21 13.125 3.563L784 451c-10.558-3.075-10.558-3.075-15-5z"/><path fill="#21BE89" d="M756 439c3.958-.228 6.679.45 10.313 2l2.675 1.125L771 443c-1.64 1.148-1.64 1.148-4 2-2.797-.898-2.797-.898-5.75-2.375l-2.984-1.46L756 440z"/><path fill="#1BB281" d="M705 422c5.504-.324 9.437-.533 14 3-2.987 1.493-4.952.406-8.125-.437l-3.32-.872L705 423z"/><path fill="#16BF8D" d="m969 386 2 1c-2.482 3.848-2.482 3.848-5.125 4.625L964 392l-1 2c-2.562.625-2.562.625-5 1 3.434-3.636 6.797-6.361 11-9"/><path fill="#18B488" d="M1012 368h1c.506 6.073-.958 9.772-4 15-1.361-2.722-.704-4.183-.062-7.125l.59-2.758L1010 371h2z"/><path fill="#07352F" d="M686 425c-1.91.868-3.829 1.719-5.75 2.563l-3.234 1.44c-3 .992-4.15 1.159-7.016-.003 1.91-.868 3.829-1.719 5.75-2.562l3.234-1.442c3-.99 4.15-1.158 7.016.004"/><path fill="#4C0B2A" d="m848 287-5 1v2c-3 2-3 2-7 2v-2h3v-2c5.625-2.125 5.625-2.125 9-1"/><path fill="#DCD9DD" d="m906 643 2 1-10 10c0-3.977 1.38-5.089 4-8 2.25-1.812 2.25-1.812 4-3"/><path fill="#30C79D" d="M961 444a984 984 0 0 1-4.875 3l-2.742 1.688C951 450 951 450 949 450v-3c1.432-.7 2.87-1.384 4.313-2.062l2.425-1.16C958 443 958 443 961 444"/><path fill="#1FD19D" d="M987 416h1c.365 4.497.365 4.497-1.312 6.813C985 424 985 424 982 424v-2h2v-3h2z"/><path fill="#0B292A" d="M1019 343h1c.932 6.26 1.21 11.022-1 17h-1z"/><path fill="#3A3642" d="m921 658 2 1a517 517 0 0 1-3.375 3.5l-1.898 1.969C916 666 916 666 914 666c1.491-3.795 3.757-5.61 7-8"/><path fill="#012B21" d="M808 460c8.036.804 8.036.804 12 3q-2.156.039-4.312.063l-2.426.035C811 463 811 463 808 462z"/><path fill="#2B6D60" d="m633 454 2 2c-.125 1.938-.125 1.938-1 4-2.062 1.75-2.062 1.75-4 3 .557-3.344 1.352-6.033 3-9"/><path fill="#092022" d="m653 440 2 1-7 8-2-1z"/><path fill="#0C3330" d="M996 410c1 3 1 3-.25 5.688L994 418h-3c1.372-2.954 2.989-5.44 5-8"/><path fill="#531434" d="m839 338 1 4-1.937 1.313c-2.33 1.6-2.33 1.6-3.063 4.687h-2c1.37-3.995 3.257-6.8 6-10"/><path fill="#544F5B" d="M1033 396h1l1 6-3 1v5h-1q.212-2.437.438-4.875c.08-.905.162-1.81.246-2.742C1032 398 1032 398 1033 396"/><path fill="#350C23" d="M893 299c-3.006 3.006-5.824 2.596-10 3 5.625-4.312 5.625-4.312 10-3"/><path fill="#58C29C" d="M778 415c4.03.553 8.02 1.156 12 2v1h-9v-2z"/><path fill="#24CF9C" d="M942 450h7c-2.463 2.463-4.707 2.998-8 4z"/><path fill="#041719" d="M1011 323h1l-1 9-2-1c.875-5.75.875-5.75 2-8"/><path fill="#45122D" d="M876 306c-.625 1.938-.625 1.938-2 4-3.125.75-3.125.75-6 1 4.839-5 4.839-5 8-5"/></svg>